HIERARCHY
ROOT hip
{
	OFFSET 0.000000 0.000000 0.000000 
	CHANNELS 6 Xposition Yposition Zposition Xrotation Zrotation Yrotation
	JOINT abdomen
	{
		OFFSET 0.000000 3.402643 0.000000 
		CHANNELS 3 Xrotation Zrotation Yrotation
		JOINT chest
		{
			OFFSET 0.000000 8.438565 -0.680529 
			CHANNELS 3 Xrotation Zrotation Yrotation
			JOINT neck
			{
				OFFSET 0.000000 10.207942 -0.272212 
				CHANNELS 3 Xrotation Zrotation Yrotation
				JOINT head
				{
					OFFSET 0.000000 3.130431 0.000000 
					CHANNELS 3 Xrotation Zrotation Yrotation
					End Site
					{
						OFFSET 0.000000 3.130435 0.000000 
					}
				}
			}
			JOINT lCollar
			{
				OFFSET 3.470700 6.669187 -0.816635 
				CHANNELS 3 Yrotation Zrotation Xrotation
				JOINT lShldr
				{
					OFFSET 3.198488 0.000000 0.000000 
					CHANNELS 3 Zrotation Yrotation Xrotation
					JOINT lForeArm
					{
						OFFSET 10.139888 0.000000 0.000000 
						CHANNELS 3 Yrotation Zrotation Xrotation
						JOINT lHand
						{
							OFFSET 8.370511 0.000000 0.000000 
							CHANNELS 3 Zrotation Yrotation Xrotation
							End Site
							{
								OFFSET 4.083176 0.000000 0.000000 
							}
						}
					}
				}
			}
			JOINT rCollar
			{
				OFFSET -3.470700 6.669187 -0.816635 
				CHANNELS 3 Yrotation Zrotation Xrotation
				JOINT rShldr
				{
					OFFSET -3.198488 0.000000 0.000000 
					CHANNELS 3 Zrotation Yrotation Xrotation
					JOINT rForeArm
					{
						OFFSET -10.139888 0.000000 0.000000 
						CHANNELS 3 Yrotation Zrotation Xrotation
						JOINT rHand
						{
							OFFSET -8.370511 0.000000 0.000000 
							CHANNELS 3 Zrotation Yrotation Xrotation
							End Site
							{
								OFFSET -4.083176 0.000000 0.000000 
							}
						}
					}
				}
			}
		}
	}
	JOINT lThigh
	{
		OFFSET 5.308129 -1.633274 1.361059 
		CHANNELS 3 Xrotation Zrotation Yrotation
		JOINT lShin
		{
			OFFSET -2.041588 -20.007561 0.000000 
			CHANNELS 3 Xrotation Zrotation Yrotation
			JOINT lFoot
			{
				OFFSET 0.000000 -19.190928 -1.224953 
				CHANNELS 3 Xrotation Yrotation Zrotation
				End Site
				{
					OFFSET 0.000000 -2.449906 4.627600 
				}
			}
		}
	}
	JOINT rThigh
	{
		OFFSET -5.308129 -1.633274 1.361059 
		CHANNELS 3 Xrotation Zrotation Yrotation
		JOINT rShin
		{
			OFFSET 2.041588 -20.007561 0.000000 
			CHANNELS 3 Xrotation Zrotation Yrotation
			JOINT rFoot
			{
				OFFSET 0.000000 -19.190928 -1.224953 
				CHANNELS 3 Xrotation Yrotation Zrotation
				End Site
				{
					OFFSET 0.000000 -2.449906 4.627600 
				}
			}
		}
	}
}
MOTION
Frames: 15
Frame Time: 0.016667
-0.433641 43.764793 -1.398443 -1.404190 -6.004070 5.536730 -21.393900 1.968320 4.336940 14.599500 -0.320525 2.377200 10.872200 -6.821848 -26.890980 15.468300 13.137800 -5.283080 2.000000 -2.000000 0.000000 -93.848999 13.849800 168.531998 33.398800 -0.328988 0.075316 0.065994 -0.059881 -158.835999 -2.000000 2.000000 0.000000 -104.200996 117.043999 36.565201 -66.641197 0.269056 0.125517 -0.126806 0.134127 166.360001 -5.058554 2.624666 -0.107951 20.674318 3.672950 1.379149 -11.065662 -2.958513 -1.007340 -0.373287 9.064704 -2.525785 10.612171 -2.536939 -0.946934 -5.775311 -8.726886 -1.753536 
-0.396422 43.755661 -1.384030 -1.452850 -5.837980 4.932200 -21.483200 1.843080 4.280760 14.521400 -0.330191 2.329830 10.620693 -7.098610 -26.651081 15.368800 12.950500 -5.293830 2.000000 -2.000000 0.000000 -93.556297 14.172800 168.843002 33.379299 -0.329013 0.075277 0.065842 -0.059500 -158.688995 -2.000000 2.000000 0.000000 -109.944000 117.920998 30.829901 -67.353996 0.267490 0.126182 -0.127493 0.134576 166.067001 -4.813740 2.386834 0.139729 20.515608 3.677845 1.400009 -11.025401 -2.677575 -0.943229 -0.484275 8.846687 -2.466968 11.149994 -2.602953 -0.982510 -6.143086 -8.340472 -1.677238 
-0.366825 43.751671 -1.380301 -1.452570 -5.730590 4.275210 -21.490499 1.839360 4.019680 14.472700 -0.077685 2.195780 10.801036 -7.443049 -26.426405 15.471700 13.003300 -5.092430 2.000000 -2.000000 0.000000 -93.624702 14.182400 168.764999 33.271801 -0.329154 0.075063 0.065862 -0.059551 -158.709000 -2.000000 2.000000 0.000000 -115.222000 118.876999 25.328600 -67.490799 0.267189 0.126307 -0.127286 0.134441 166.154007 -4.578145 2.233932 0.408386 20.317839 3.671742 1.390729 -11.004610 -2.280523 -0.843782 -0.535976 8.697556 -2.180563 11.345654 -2.625429 -0.991027 -6.298397 -8.161830 -1.640839 
-0.337226 43.747818 -1.376582 -1.442510 -5.632990 3.607730 -21.507099 1.835580 3.758520 14.414000 0.165062 2.062310 10.974610 -7.791303 -26.196230 15.584700 13.055600 -4.900590 2.000000 -2.000000 0.000000 -93.702797 14.192000 168.697006 33.164398 -0.329295 0.074849 0.065882 -0.059602 -158.727997 -2.000000 2.000000 0.000000 -120.124001 120.066002 20.198999 -67.627502 0.266888 0.126432 -0.127080 0.144073 166.242004 -4.377581 2.081508 0.648770 20.177238 3.679043 1.383277 -11.022791 -1.864559 -0.758078 -0.602642 8.548191 -1.916371 11.571445 -2.647327 -0.999074 -6.475881 -7.998737 -1.604308 
-0.296198 43.738941 -1.373290 -1.422890 -5.633040 2.990580 -21.624399 1.884590 3.360000 14.355200 0.514550 1.858150 10.948756 -8.274453 -25.742004 15.571400 12.989100 -4.720800 2.000000 -2.000000 0.000000 -93.849899 14.973900 168.988007 33.896801 -0.328329 0.076305 0.066375 -0.060818 -159.197006 -2.000000 2.000000 0.000000 -124.200996 121.443001 15.753800 -67.490799 0.267189 0.126307 -0.129591 0.135914 165.177994 -4.280018 2.022816 0.926246 20.146378 3.680636 1.363667 -11.012527 -1.558835 -0.671987 -0.681208 8.487217 -1.677565 11.645212 -2.675383 -1.000528 -6.340856 -7.881013 -1.530468 
-0.255170 43.730072 -1.370011 -1.393450 -5.633110 2.372470 -21.750900 1.929810 2.951540 14.296200 0.854251 1.654350 10.923764 -8.769353 -25.292038 15.558100 12.922600 -4.531220 2.000000 -2.000000 0.000000 -93.987198 15.746100 169.279007 34.619499 -0.327359 0.077730 0.066867 -0.062006 -159.656006 -2.000000 2.000000 0.000000 -127.898003 122.976997 11.677900 -67.363800 0.267469 0.126191 -0.132130 0.137475 164.113007 -4.182384 1.972571 1.164650 20.106840 3.684316 1.384088 -11.012491 -1.259986 -0.600327 -0.765152 8.445424 -1.448759 11.759209 -2.702686 -1.001279 -6.187551 -7.757061 -1.442083 
-0.209104 43.731865 -1.368337 -1.344200 -5.555120 1.731100 -21.644600 1.884800 2.886930 14.393800 0.883537 1.613600 10.745537 -9.120508 -25.255814 15.770200 12.749700 -4.479220 2.000000 -2.000000 0.000000 -93.723602 15.532200 169.699997 34.726898 -0.327213 0.077941 0.066772 -0.061779 -159.567993 -2.000000 2.000000 0.000000 -131.488998 124.536003 6.294890 -66.494698 0.269377 0.125378 -0.132928 0.137952 163.781006 -4.082120 1.823868 1.458814 19.988626 3.674532 1.363803 -10.974259 -0.987393 -0.497849 -0.789276 8.245132 -1.433600 11.724509 -2.680794 -1.009503 -6.068801 -7.254564 -1.392108 
-0.163039 43.733540 -1.366674 -1.304790 -5.477100 1.090790 -21.538300 1.839750 2.822250 14.481600 0.912815 1.572790 10.568031 -9.480633 -25.222763 15.982100 12.576900 -4.426290 2.000000 -2.000000 0.000000 -93.459999 15.308600 170.130005 34.834400 -0.327067 0.078152 0.066677 -0.061551 -159.479996 -2.000000 2.000000 0.000000 -134.671005 126.272003 1.302240 -65.635300 0.271251 0.124546 -0.133753 0.138438 163.440002 -3.969724 1.674851 1.752236 19.858995 3.673129 1.345090 -10.957044 -0.722688 -0.432277 -0.921183 8.080772 -1.432883 11.954631 -2.724103 -1.000252 -6.067634 -6.745174 -1.273289 
-0.121327 43.723892 -1.348734 -1.422670 -5.545180 0.634905 -21.191799 1.893510 2.575570 14.930600 1.098200 1.454340 10.529515 -9.561560 -25.057371 16.069201 12.515400 -4.321420 2.000000 -2.000000 0.000000 -93.537804 14.869200 170.130997 34.853901 -0.327040 0.078190 0.066520 -0.061172 -159.334000 -2.000000 2.000000 0.000000 -137.481995 127.783997 -3.806860 -64.307198 0.274122 0.123205 -0.133117 0.138063 163.703003 -3.739528 1.709348 1.965859 19.834146 3.701127 1.349983 -11.080274 -0.629297 -0.430400 -0.789197 8.109960 -1.304642 12.040224 -2.744173 -1.000411 -6.172921 -6.525986 -1.225740 
-0.079612 43.714127 -1.330793 -1.530780 -5.613240 0.178344 -20.854900 1.944330 2.321460 15.389300 1.283830 1.339020 10.490906 -9.642671 -24.891983 16.146799 12.463900 -4.216840 2.000000 -2.000000 0.000000 -93.605904 14.439500 170.141998 34.883202 -0.327000 0.078247 0.066364 -0.060793 -159.186996 -2.000000 2.000000 0.000000 40.017399 50.557800 171.376999 -62.988800 0.276941 0.121809 -0.132459 0.137672 163.977005 -3.552467 1.735503 2.181627 19.869083 3.727857 1.353625 -11.183357 -0.544446 -0.399990 -0.720836 8.158894 -1.165352 12.264921 -2.813504 -1.003381 -6.331554 -6.318001 -1.132122 
-0.018508 43.706409 -1.281847 -1.560090 -5.564360 -0.591592 -21.101999 2.039510 2.185990 14.959100 1.467580 1.272240 10.484556 -9.917775 -24.645464 16.116301 12.455700 -4.127510 2.000000 -2.000000 0.000000 -93.694099 14.996000 170.061996 35.029701 -0.326800 0.078534 0.066158 -0.060286 -158.992004 -2.000000 2.000000 0.000000 38.844501 48.573898 167.830002 -61.670399 0.279727 0.120348 -0.132858 0.137910 163.811005 -3.282897 1.544710 2.326415 19.776091 3.743109 1.337386 -11.317358 -0.024420 -0.305147 -0.684030 8.001674 -0.926237 12.312612 -2.825895 -1.013653 -6.245330 -5.896052 -1.067331 
0.042594 43.698814 -1.232890 -1.589390 -5.515470 -1.361580 -21.349199 2.121730 2.043480 14.519000 1.650950 1.202430 10.484180 -10.203412 -24.397856 16.085899 12.447600 -4.038160 2.000000 -2.000000 0.000000 -93.792099 15.552400 169.973007 35.185902 -0.326585 0.078839 0.065964 -0.059805 -158.806000 -2.000000 2.000000 0.000000 37.896500 46.550400 164.468002 -60.342300 0.282499 0.118811 -0.133234 0.138133 163.654007 -2.946024 1.357916 2.466810 19.577393 3.740439 1.327916 -11.400605 0.475830 -0.208155 -0.660444 7.832262 -0.668337 12.454270 -2.861973 -1.005490 -6.266139 -5.495641 -0.954523 
0.053813 43.709751 -1.271176 -1.324360 -5.457530 -1.407790 -21.423401 2.128500 1.672140 14.352000 1.922280 1.011880 10.429044 -10.225673 -24.313858 16.103001 12.389400 -4.008950 2.000000 -2.000000 0.000000 -93.733498 15.425900 170.158997 35.146900 -0.326639 0.078763 0.066076 -0.060084 -158.914001 -2.000000 2.000000 0.000000 36.646400 44.860401 160.414001 -59.072800 0.285115 0.117283 -0.133046 0.138021 163.733002 -3.226561 1.345834 2.521962 19.513674 3.712896 1.343915 -11.239388 0.223789 -0.225315 -1.018810 7.777184 -0.633774 12.474350 -2.822573 -1.030863 -6.178771 -5.634223 -1.000651 
0.065033 43.720814 -1.309471 -1.059390 -5.399470 -1.463240 -21.496599 2.126030 1.303700 14.184800 2.193410 0.819754 10.373871 -10.247892 -24.231596 16.120701 12.340700 -3.965920 2.000000 -2.000000 0.000000 -93.674896 15.309100 170.335007 35.107800 -0.326693 0.078686 0.066179 -0.060337 -159.011993 -2.000000 2.000000 0.000000 35.591599 43.120998 156.516998 -57.793499 0.287716 0.115685 -0.132858 0.137910 163.811005 -3.478436 1.341707 2.575747 19.392675 3.667930 1.337367 -11.054145 -0.006608 -0.241798 -1.274920 7.712787 -0.565015 12.377072 -2.766680 -1.036877 -6.091340 -5.781697 -1.050475 
0.110556 43.721058 -1.281510 -1.009880 -5.116400 -1.677870 -21.451000 2.121410 1.013200 14.202900 2.494370 0.660105 10.279315 -10.376626 -24.035856 16.127399 12.273400 -3.909460 2.000000 -2.000000 0.000000 -93.782303 15.260200 170.285995 35.254299 -0.326491 0.078972 0.066282 -0.060590 -159.108994 -2.000000 2.000000 0.000000 34.703899 41.565800 153.136993 -57.012199 0.289286 0.114681 -0.133070 0.138035 163.723007 -3.340936 1.001891 2.830152 19.047701 3.647720 1.317228 -10.886669 -0.131830 -0.238273 -1.531334 7.344326 -0.793957 12.817246 -2.814977 -1.054667 -6.322277 -5.472811 -1.000888 
